<?xml version="1.0" encoding="UTF-8" standalone="no"?>
<!-- Created with Inkscape (http://www.inkscape.org/) -->

<svg
   width="488.32758mm"
   height="97.611481mm"
   viewBox="0 0 488.32758 97.611481"
   version="1.1"
   id="svg5"
   inkscape:version="1.2.1 (9c6d41e410, 2022-07-14)"
   sodipodi:docname="logo7_xd - copia - copia3.svg"
   xml:space="preserve"
   xmlns:inkscape="http://www.inkscape.org/namespaces/inkscape"
   xmlns:sodipodi="http://sodipodi.sourceforge.net/DTD/sodipodi-0.dtd"
   xmlns="http://www.w3.org/2000/svg"
   xmlns:svg="http://www.w3.org/2000/svg"
   xmlns:rdf="http://www.w3.org/1999/02/22-rdf-syntax-ns#"
   xmlns:cc="http://creativecommons.org/ns#"
   xmlns:dc="http://purl.org/dc/elements/1.1/"><title
     id="title11">Logo - Bodega &quot;San José&quot;</title><sodipodi:namedview
     id="namedview7"
     pagecolor="#505050"
     bordercolor="#eeeeee"
     borderopacity="1"
     inkscape:showpageshadow="false"
     inkscape:pageopacity="0"
     inkscape:pagecheckerboard="false"
     inkscape:deskcolor="#505050"
     inkscape:document-units="px"
     showgrid="false"
     showborder="true"
     shape-rendering="auto"
     inkscape:zoom="0.35355338"
     inkscape:cx="902.26828"
     inkscape:cy="981.46424"
     inkscape:window-width="1366"
     inkscape:window-height="745"
     inkscape:window-x="-8"
     inkscape:window-y="-8"
     inkscape:window-maximized="1"
     inkscape:current-layer="layer9" /><defs
     id="defs2"><linearGradient
       id="linearGradient15180"
       inkscape:swatch="solid"><stop
         style="stop-color:#000000;stop-opacity:1;"
         offset="0"
         id="stop15178" /></linearGradient></defs><g
     inkscape:groupmode="layer"
     id="layer2"
     inkscape:label="texto"
     style="display:none"
     transform="translate(-6.2196794,-229.2706)"><text
       xml:space="preserve"
       style="font-style:normal;font-variant:normal;font-weight:normal;font-stretch:normal;font-size:137.05px;font-family:'Berlin Sans FB Demi';-inkscape-font-specification:'Berlin Sans FB Demi';fill:#d4e2cd;stroke-width:0.342626"
       x="-261.17056"
       y="284.36697"
       id="text387-0-8-9-4"
       transform="matrix(0.01191966,-1.2215913,0.81852645,0.00798676,0,0)"><tspan
         style="font-style:normal;font-variant:normal;font-weight:normal;font-stretch:normal;font-family:'Berlin Sans FB Demi';-inkscape-font-specification:'Berlin Sans FB Demi';stroke-width:0.342626"
         x="-261.17056"
         y="284.36697"
         id="tspan566-7-1-0-6"
         sodipodi:role="line">o</tspan></text><text
       xml:space="preserve"
       style="font-style:normal;font-variant:normal;font-weight:normal;font-stretch:normal;font-size:187.661px;font-family:'Berlin Sans FB Demi';-inkscape-font-specification:'Berlin Sans FB Demi';fill:#d4e2cd;stroke-width:0.469153"
       x="83.671104"
       y="412.40817"
       id="text387-0-8-9-4-7"
       transform="scale(1.2216495,0.8185654)"><tspan
         style="font-style:normal;font-variant:normal;font-weight:normal;font-stretch:normal;font-family:'Berlin Sans FB Demi';-inkscape-font-specification:'Berlin Sans FB Demi';stroke-width:0.469153"
         x="83.671104"
         y="412.40817"
         id="tspan566-7-1-0-6-8"
         sodipodi:role="line">J</tspan></text><text
       xml:space="preserve"
       style="font-style:normal;font-variant:normal;font-weight:normal;font-stretch:normal;font-size:176.36px;font-family:'Berlin Sans FB Demi';-inkscape-font-specification:'Berlin Sans FB Demi';fill:#d4e2cd;stroke-width:0.440901"
       x="188.72701"
       y="383.38611"
       id="text387-0-8-9-4-7-1"
       transform="scale(1.2216495,0.8185654)"
       inkscape:transform-center-x="48.735548"
       inkscape:transform-center-y="-155.15784"><tspan
         style="font-style:normal;font-variant:normal;font-weight:normal;font-stretch:normal;font-family:'Berlin Sans FB Demi';-inkscape-font-specification:'Berlin Sans FB Demi';stroke-width:0.440901"
         x="188.72701"
         y="383.38611"
         id="tspan566-7-1-0-6-8-0"
         sodipodi:role="line">s</tspan></text><text
       xml:space="preserve"
       style="font-style:normal;font-variant:normal;font-weight:normal;font-stretch:normal;font-size:133.373px;font-family:'Berlin Sans FB Demi';-inkscape-font-specification:'Berlin Sans FB Demi';fill:#d4e2cd;stroke-width:0.333431"
       x="247.36856"
       y="385.07468"
       id="text387-0-8-9-4-7-1-5"
       transform="scale(1.2216495,0.8185654)"
       inkscape:transform-center-x="36.855983"
       inkscape:transform-center-y="-117.33826"><tspan
         style="font-style:normal;font-variant:normal;font-weight:normal;font-stretch:normal;font-family:'Berlin Sans FB Demi';-inkscape-font-specification:'Berlin Sans FB Demi';stroke-width:0.333431"
         x="247.36856"
         y="385.07468"
         id="tspan566-7-1-0-6-8-0-6"
         sodipodi:role="line">é</tspan></text></g><g
     inkscape:groupmode="layer"
     id="layer8"
     inkscape:label="Pared_base"
     style="display:inline"
     transform="translate(-6.2196794,-229.2706)"><rect
       style="fill:#e0144c;fill-opacity:1;stroke:#6e082d;stroke-width:0.131882;stroke-dasharray:none;stroke-opacity:0"
       id="rect1082"
       width="85.602806"
       height="65.816666"
       x="15.337346"
       y="250.1563"
       ry="5.8542809" /><rect
       style="fill:#ffffff;stroke:#000000;stroke-width:0.0879202;stroke-opacity:0.417647"
       id="rect404"
       width="15.915439"
       height="26.111265"
       x="31.738546"
       y="269.78946"
       ry="6.823442" /><rect
       style="fill:#ffffff;stroke:#000000;stroke-width:0.0879202;stroke-opacity:0.547059"
       id="rect406"
       width="15.915439"
       height="26.111265"
       x="67.299606"
       y="269.33475"
       ry="6.823442" /><rect
       style="fill:#1a1a1a;stroke-width:0.0879202"
       id="rect460"
       width="7.7090402"
       height="14.920722"
       x="37.209476"
       y="275.01172"
       ry="3.8545201" /><rect
       style="fill:#1a1a1a;stroke-width:0.0879202"
       id="rect462"
       width="7.7090402"
       height="14.920722"
       x="69.040352"
       y="274.30832"
       ry="3.8545201" /><ellipse
       style="fill:#ffffff;stroke-width:0.0879202"
       id="path620"
       cx="43.960499"
       cy="278.90631"
       rx="1.8243649"
       ry="1.252877" /><ellipse
       style="fill:#ffffff;stroke-width:0.0879202"
       id="ellipse622"
       cx="75.845306"
       cy="277.83746"
       rx="1.8243649"
       ry="1.252877" /></g><g
     inkscape:groupmode="layer"
     id="layer9"
     inkscape:label="tipografia"
     transform="matrix(0.69305304,0,0,0.70821856,268.40081,-93.689249)"
     style="display:inline;fill:#ffffff"><path
       id="text387-0-8-5"
       style="font-style:normal;font-variant:normal;font-weight:normal;font-stretch:normal;font-size:132.931px;font-family:'Berlin Sans FB Demi';-inkscape-font-specification:'Berlin Sans FB Demi';fill:#e0144c;fill-opacity:1;stroke:#6e082d;stroke-width:0.518398;stroke-dasharray:none;stroke-opacity:1"
       d="m -124.36056,183.72337 c -0.49279,-0.003 -1.00464,0.0415 -1.53253,0.12962 -3.3786,0.56414 -4.97643,3.85128 -4.69384,9.18664 0.14331,2.70734 3.2583,6.77349 6.29188,10.12414 -9.35079,0.44416 -16.84688,2.77823 -22.47635,7.01451 -6.04697,4.5704 -9.07037,10.59982 -9.07037,18.08748 0,6.48283 2.92691,12.0577 8.78038,16.72535 6.19209,4.99176 14.00449,7.48792 23.43776,7.48792 6.1921,0 11.99735,-1.83131 17.41542,-5.49411 0.62888,-0.42138 1.13665,-0.69698 1.52368,-0.82663 0.43537,0.0324 0.79807,0.98854 1.08833,2.86858 0.33863,1.84758 0.96752,2.77108 1.88668,2.77108 7.740101,0 14.609511,-0.14557 20.608081,-0.43737 1.693151,-0.0973 2.539682,-0.79409 2.539682,-2.09065 0,-2.46349 -0.217628,-6.15873 -0.652993,-11.08567 -0.435389,-4.92697 -0.652999,-8.63853 -0.652999,-11.13442 0,-6.54765 0.773991,-12.75474 2.322008,-18.62169 0.145046,-0.55104 0.217674,-0.89128 0.217674,-1.02094 0,-0.32416 -0.36271,-0.58344 -1.088332,-0.77791 -2.08018,-0.45381 -5.51486,-1.00503 -10.30406,-1.65331 -5.03108,-0.68068 -8.44182,-1.02094 -10.23173,-1.02094 -0.77401,0 -1.450831,0.79414 -2.031331,2.38246 -0.53212,1.55587 -1.01596,2.33368 -1.45135,2.33368 -0.14505,0 -0.31483,-0.081 -0.50834,-0.24304 -2.26904,-1.83781 -4.96571,-3.19795 -8.08302,-4.08853 1.39123,-0.92178 2.70802,-1.83833 3.66076,-2.59746 3.34002,-2.66123 3.7472,-3.25955 1.23503,-6.28535 -2.51213,-3.02579 -4.14188,-2.15979 -7.41091,1.45032 -2.48733,2.74686 -4.04372,5.22299 -4.64878,6.25466 -0.075,-0.006 -0.1527,-0.006 -0.22791,-0.011 0.24492,-2.05461 1.07324,-9.913 -0.0641,-13.98026 -1.10945,-3.96743 -3.21727,-5.42742 -5.87837,-5.44803 z m 7.12228,34.08832 c 4.16033,0 7.52247,0.9078 10.08638,2.72302 2.61229,1.78275 3.91869,4.05163 3.91869,6.80682 0,2.78763 -1.3064,5.08916 -3.91869,6.90435 -2.61227,1.78278 -5.97445,2.67425 -10.08638,2.67425 -3.87006,0 -7.15968,-0.94046 -9.86871,-2.82049 -2.70903,-1.88001 -4.06335,-4.13254 -4.06335,-6.75811 0,-2.78762 1.28178,-5.07281 3.84569,-6.85556 2.56391,-1.78279 5.92605,-2.67428 10.08637,-2.67428 z" /><path
       id="text387-0-2"
       style="font-style:normal;font-variant:normal;font-weight:normal;font-stretch:normal;font-size:187.661px;font-family:'Berlin Sans FB Demi';-inkscape-font-specification:'Berlin Sans FB Demi';fill:#e0144c;fill-opacity:1;stroke:#6e082d;stroke-width:0.518398;stroke-dasharray:none;stroke-opacity:1"
       d="m -185.78499,140.73353 c -1.23211,0.003 -2.06902,0.23383 -2.39501,0.74519 -1.31309,2.05949 2.18702,6.48513 6.51293,10.7932 -11.88838,1.52918 -22.05709,4.33869 -30.49589,8.43611 -11.5415,5.53692 -17.31241,12.49258 -17.31241,20.86658 0,5.76572 2.3562,11.0275 7.06839,15.78649 0.68292,0.68637 5.05333,4.14122 13.11188,10.36452 4.64391,3.66076 6.96603,6.97881 6.96603,9.9532 0,4.66746 -3.55163,8.19066 -10.65409,10.57018 -3.20974,1.05247 -9.76537,2.33407 -19.66782,3.84412 -1.02439,0.13722 -1.53663,0.4575 -1.53663,0.96086 0,1.41855 2.69745,5.35405 8.09259,11.80616 5.39512,6.40633 8.87796,9.60929 10.4487,9.60929 0.34144,0 0.78558,-0.0229 1.33193,-0.0691 14.68295,-1.60158 27.14638,-5.33127 37.39028,-11.18849 11.67808,-6.63512 17.51709,-14.59686 17.51709,-23.88606 0,-4.9878 -2.42428,-9.99838 -7.27307,-15.03195 -0.40978,-0.36609 -4.95113,-4.21018 -13.62434,-11.53172 -4.91709,-4.07258 -7.37611,-7.50439 -7.37611,-10.29573 0,-3.11164 2.21994,-5.53673 6.65898,-7.27559 3.46868,-1.42032 7.481,-2.17252 12.03719,-2.25692 0.40689,5.88795 1.27276,12.3508 3.1374,13.10222 3.50381,1.41193 26.33296,-30.38778 26.33296,-30.38778 0,0 -36.23814,-14.94801 -46.27098,-14.91511 z" /><path
       id="text387-0-8-9-40"
       style="font-style:normal;font-variant:normal;font-weight:normal;font-stretch:normal;font-size:139.76px;font-family:'Berlin Sans FB Demi';-inkscape-font-specification:'Berlin Sans FB Demi';fill:#e0144c;fill-opacity:1;stroke:#6e082d;stroke-width:0.518398;stroke-dasharray:none;stroke-opacity:1"
       d="m -17.637472,202.36909 c -4.526622,0 -9.816098,1.19282 -15.868529,3.57837 -6.001591,2.35147 -8.722334,3.52693 -8.162874,3.52693 -0.55946,0 -0.991963,-1.14146 -1.297132,-3.42478 -0.305178,-2.3174 -0.737654,-3.4762 -1.297132,-3.4762 -1.017218,0 -5.569509,0.52807 -13.656388,1.58451 -5.340401,0.51121 -9.6122,0.88659 -12.816435,1.12514 -0.762927,0.20447 -1.144294,0.57918 -1.144294,1.12446 0,0.20447 0.05047,0.45983 0.152176,0.76656 1.983576,4.83925 2.975686,11.50211 2.975686,19.98786 0,2.69227 -0.0256,6.71342 -0.07636,12.06387 -0.05075,5.35046 -0.07635,9.35495 -0.07635,12.01317 0,0.9542 0.788321,1.51628 2.365008,1.68667 1.780128,0.20446 5.645662,0.30648 11.5964,0.30648 5.492984,0 9.12984,-0.0681 10.909977,-0.20432 1.576687,-0.13636 2.36499,-0.76641 2.36499,-1.89102 v -27.60465 c 0,-1.26094 1.423933,-2.53908 4.272147,-3.83412 2.644767,-1.1587 4.958575,-1.73742 6.942152,-1.73742 6.052431,0 9.079234,2.33429 9.079234,7.00316 0,1.26095 0.05047,3.1525 0.152185,5.67438 0.10173,2.48776 0.152874,4.36203 0.152874,5.62294 0,1.63582 -0.07672,4.07211 -0.229264,7.30965 -0.152525,3.23756 -0.228577,5.65718 -0.228577,7.2589 0,1.19278 0.762735,1.89155 2.288572,2.09602 1.525818,0.20446 5.492924,0.30648 11.9014119,0.30648 6.00159,0 9.714443,-0.0681 11.13855,-0.20432 1.424098,-0.13636 2.136414,-0.66439 2.136414,-1.58453 0,-2.21515 -0.02561,-5.5209 -0.07635,-9.91713 -0.05075,-4.43031 -0.07635,-7.75273 -0.07635,-9.96789 v -16.3073 c 0,-4.19176 -2.416052,-7.46351 -7.247834,-9.81497 -4.323164,-2.04477 -9.7142129,-3.0669 -16.1735509,-3.0669 z" /><path
       id="text387-0-8-9-4-1"
       style="font-style:normal;font-variant:normal;font-weight:normal;font-stretch:normal;font-size:135.159px;font-family:'Berlin Sans FB Demi';-inkscape-font-specification:'Berlin Sans FB Demi';fill:#fffff5;fill-opacity:1;stroke:#290038;stroke-width:0.518398;stroke-dasharray:none;stroke-opacity:1"
       d="m 141.28823,185.48283 c -3.0817,0.0388 -5.29537,2.7591 -6.40996,7.64751 -0.60385,2.64853 1.28714,7.38933 3.29438,11.41554 -1.60771,-2.24402 -3.56864,-4.87652 -4.99339,-6.45027 -2.85614,-3.15491 -3.48384,-3.52833 -6.46861,-0.94619 -2.98476,2.58213 -2.03218,4.13946 1.7898,7.18547 1.00962,0.80466 1.97945,1.49862 2.86447,2.08865 -7.02273,0.90941 -12.99942,3.13203 -17.92172,6.67798 -6.73721,4.81942 -10.18286,11.14503 -10.33681,18.9769 -0.1581,8.03979 3.10822,14.43274 9.79774,19.17857 6.64278,4.7456 15.39005,7.14491 26.24152,7.19747 10.29019,0.0498 18.7572,-2.37039 25.40225,-7.25958 6.64501,-4.88917 10.04296,-11.1453 10.19282,-18.76925 0.15461,-7.86651 -3.04179,-14.2246 -9.58896,-19.07371 -3.19895,-2.38647 -6.89286,-4.19201 -11.07509,-5.42464 0.27977,-0.10988 0.54435,-0.21807 0.79015,-0.3232 3.94663,-1.68798 4.5032,-2.15719 2.91156,-5.73113 -1.59163,-3.57393 -3.39906,-3.16696 -7.53716,-0.5462 -3.16836,2.00659 -5.35037,3.99312 -6.20453,4.81901 -0.0765,-0.006 -0.15253,-0.0121 -0.22927,-0.0186 0.76869,-1.83891 3.77357,-9.29707 3.79177,-13.5489 0.0209,-4.87498 -2.27372,-6.72474 -5.68321,-7.06728 -0.21311,-0.0215 -0.42231,-0.0307 -0.62775,-0.0283 z m -2.28791,37.51579 c 3.78866,0.0185 7.02341,0.84874 9.70427,2.49062 2.86523,1.78142 4.27136,4.02369 4.21825,6.72672 -0.0537,2.73771 -1.5483,4.98277 -4.48299,6.73609 -2.74557,1.65026 -6.01251,2.46625 -9.80118,2.44791 -3.74187,-0.0182 -6.95312,-0.86554 -9.6333,-2.54208 -2.86523,-1.78139 -4.27066,-4.04045 -4.21688,-6.77811 0.0529,-2.70305 1.52274,-4.89691 4.40931,-6.58116 2.83979,-1.68446 6.1074,-2.5179 9.80252,-2.49999 z" /><path
       id="text387-0-8-9-4-7-6"
       style="font-style:normal;font-variant:normal;font-weight:normal;font-stretch:normal;font-size:187.661px;font-family:'Berlin Sans FB Demi';-inkscape-font-specification:'Berlin Sans FB Demi';fill:#fffff5;fill-opacity:1;stroke:#290038;stroke-width:0.518398;stroke-dasharray:none;stroke-opacity:1"
       d="m 55.588081,151.09386 c -2.185373,0 -3.277964,0.41163 -3.277964,1.23532 0,0.22877 0.06809,0.57202 0.204706,1.02961 2.458533,12.94997 3.688057,31.18543 3.688057,54.70585 0,10.15863 -0.956392,17.4569 -2.868579,21.89557 -1.006775,2.28075 -2.317709,4.29005 -3.930298,6.02961 -1.211885,-4.04748 -2.639901,-7.45623 -4.07426,-7.77572 -3.694755,-0.82299 -20.81075,34.24457 -20.81075,34.24457 0,0 48.249078,11.15961 50.395063,6.06498 0.74528,-1.76931 -1.71128,-4.50326 -5.231522,-7.31832 9.906815,-6.17087 17.195873,-14.38787 21.862264,-24.6553 2.799989,-6.26907 4.199813,-15.12376 4.199813,-26.56365 0,-6.36058 0.06819,-15.87877 0.204698,-28.55417 0.136538,-12.72117 0.204706,-22.23934 0.204706,-28.55417 0,-1.18974 -0.989742,-1.78418 -2.970235,-1.78418 -2.048781,0 -5.088193,0.0684 -9.117467,0.20567 -4.029264,0.13722 -7.067988,0.20632 -9.116778,0.20632 -2.185364,0 -5.429795,-0.0692 -9.732249,-0.20632 -4.234154,-0.13723 -7.443822,-0.20567 -9.629205,-0.20567 z" /><path
       id="text387-0-8-9-4-7-1-2"
       style="font-style:normal;font-variant:normal;font-weight:normal;font-stretch:normal;font-size:151.909px;font-family:'Berlin Sans FB Demi';-inkscape-font-specification:'Berlin Sans FB Demi';fill:#fffff5;fill-opacity:1;stroke:#290038;stroke-width:0.518398;stroke-dasharray:none;stroke-opacity:1"
       inkscape:transform-center-x="47.514323"
       inkscape:transform-center-y="-98.880641"
       d="m 226.2364,207.47856 c -10.59834,0 -20.54716,1.39215 -29.84632,4.17732 -10.39321,3.14457 -15.58948,6.96336 -15.58948,11.4556 0,2.39584 1.74364,4.67195 5.23083,6.8282 0.27351,0.1797 3.52091,1.78155 9.74315,4.80634 3.4872,1.73697 5.23087,3.26426 5.23087,4.58196 0,1.91666 -3.00823,3.29469 -9.02537,4.13325 -4.85471,0.38933 -9.67521,0.77853 -14.46155,1.16787 -0.75214,0.0599 -1.1286,0.22457 -1.1286,0.49411 0,0.71877 2.35928,2.71051 7.07726,5.97486 4.78634,3.2344 7.86319,4.85105 9.23073,4.85105 6.15386,0 12.88925,-0.68833 20.20551,-2.06594 6.76926,-1.31773 12.68379,-2.93506 17.74363,-4.85173 2.39317,-0.8685 4.37601,-2.24588 5.94867,-4.13261 1.3675,-1.70704 2.05109,-3.32437 2.05109,-4.8517 0,-2.60552 -1.74362,-5.0463 -5.23083,-7.32234 -1.23077,-0.83855 -4.47889,-2.47067 -9.74385,-4.8965 -3.48718,-1.61718 -5.23083,-2.95017 -5.23083,-3.99833 0,-1.64715 1.64104,-2.91966 4.92311,-3.8181 2.73504,-0.77867 6.11973,-1.16854 10.15392,-1.16854 1.91456,0 3.82943,0.1049 5.74397,0.3145 1.02564,-0.5091 1.53867,-0.9131 1.53867,-1.21261 0,-0.53904 -2.15407,-2.41114 -6.46177,-5.6156 -4.30771,-3.23439 -7.0088,-4.85106 -8.10281,-4.85106 z" /><path
       id="text387-0-8-9-4-7-1-5-4"
       style="font-style:normal;font-variant:normal;font-weight:normal;font-stretch:normal;font-size:130.165px;font-family:'Berlin Sans FB Demi';-inkscape-font-specification:'Berlin Sans FB Demi';fill:#fffff5;fill-opacity:1;stroke:#290038;stroke-width:0.518398;stroke-dasharray:none;stroke-opacity:1"
       inkscape:transform-center-x="34.377588"
       inkscape:transform-center-y="-100.33968"
       d="m 295.47638,187.31709 c -0.6926,0.15202 -1.18726,0.30413 -1.48411,0.45608 -6.13458,2.64394 -10.71091,4.63431 -13.72873,5.97148 -6.97559,2.43124 -11.67506,3.9358 -14.09921,4.5132 -1.03893,0.24313 -1.55847,0.57749 -1.55847,1.00295 0,0.36468 0.0741,0.92692 0.22244,1.68669 0.19788,0.75976 0.29682,1.322 0.29682,1.68668 0,0.27352 -0.0497,0.66857 -0.1487,1.18522 -0.099,0.51664 -0.14799,0.89604 -0.14799,1.13915 0,0.6686 0.46972,0.98793 1.40969,0.95752 h 0.66804 c 5.8872,-0.18233 13.18442,-1.39826 21.89156,-3.64714 8.70716,-2.27924 15.23785,-4.67974 19.59142,-7.20215 0.6926,-0.39505 1.03851,-0.71438 1.03851,-0.95751 0,-0.27353 -0.39571,-0.57717 -1.18727,-0.91146 -2.6715,-1.06366 -4.69989,-1.83879 -6.08511,-2.32503 -2.47365,-1.33717 -4.27927,-2.37024 -5.41712,-3.0996 -0.49473,-0.24312 -0.91537,-0.3953 -1.26166,-0.45608 z m -12.54143,21.2886 c -11.27974,0 -20.33276,2.30972 -27.15996,6.92903 -6.62931,4.46738 -9.94446,10.19566 -9.94446,17.18539 0,7.1721 3.71086,12.90104 11.13173,17.18604 7.22295,4.22425 16.72153,6.3361 28.49596,6.3361 12.71445,0 22.08983,-1.99038 28.12546,-5.9715 0.74208,-0.48624 1.1129,-0.8356 1.1129,-1.04835 0,-0.75973 -1.23694,-2.53794 -3.71057,-5.33384 -2.42414,-2.79589 -4.15574,-4.34549 -5.19468,-4.6494 l -5.63954,2.18817 c -4.45252,1.45874 -8.88081,2.1875 -13.28383,2.1875 -3.66096,0 -6.92563,-0.42514 -9.79503,-1.27605 -3.51254,-1.03327 -5.61564,-2.53784 -6.30825,-4.5132 11.57654,-0.54703 20.28368,-1.01784 26.12142,-1.41291 9.69659,-0.60782 14.81736,-0.94214 15.36156,-1.00295 3.21572,-0.42545 4.82349,-2.17293 4.82349,-5.24236 0,-5.86529 -3.31447,-10.92555 -9.94378,-15.18019 -6.62932,-4.25461 -14.69372,-6.38148 -24.19242,-6.38148 z m -2.89382,11.66993 c 3.01781,0 5.61486,0.71374 7.79166,2.14207 2.17677,1.42835 3.26569,3.08508 3.26569,4.96926 0,0.3343 -0.81634,0.57721 -2.44895,0.72915 -7.71769,0.69898 -13.40713,1.04837 -17.0681,1.04837 -1.38521,0 -2.07773,-0.41012 -2.07773,-1.23065 0,-2.00575 0.9395,-3.75325 2.81943,-5.24235 2.02839,-1.61068 4.6012,-2.41585 7.718,-2.41585 z" /></g><g
     inkscape:groupmode="layer"
     id="layer7"
     inkscape:label="pruebacapa"
     style="display:inline"
     transform="translate(-6.2196794,-229.2706)"><path
       style="fill:#f2f2f2;stroke:#000000;stroke-width:0.0879202;stroke-opacity:0.479412"
       d="m 44.172476,298.88485 h 26.981639 l -3.978861,4.16536 c 0,0 -2.545626,2.30022 -9.511962,2.42463 -6.963,0.12433 -9.325449,-2.23811 -9.325449,-2.23811 z"
       id="path682"
       sodipodi:nodetypes="cccscc" /></g><g
     inkscape:groupmode="layer"
     id="layer4"
     inkscape:label="Detalles"
     style="display:none"
     transform="translate(-6.2196794,-229.2706)"><path
       id="path5367"
       style="fill:#ffc300;fill-opacity:1;stroke-width:0.264583"
       sodipodi:type="inkscape:offset"
       inkscape:radius="4.7628875"
       inkscape:original="M 293.1582 266.70117 C 293.1502 266.87174 293.14131 267.04232 293.13281 267.21289 C 291.73048 295.61719 290.32804 324.02148 288.92578 352.42578 L 353.48242 352.42578 L 353.48242 267.75781 C 333.37437 267.40467 313.26631 267.05123 293.1582 266.70117 z "
       d="m 293.24023,261.93945 a 4.7633638,4.7633638 0 0 0 -4.83984,4.53907 c -0.007,0.15406 -0.0165,0.32025 -0.0254,0.49804 a 4.7633638,4.7633638 0 0 0 0,0.002 c -1.40233,28.40428 -2.80477,56.80857 -4.20703,85.21289 a 4.7633638,4.7633638 0 0 0 4.75781,4.99804 h 64.55664 a 4.7633638,4.7633638 0 0 0 4.76367,-4.76367 v -84.66797 a 4.7633638,4.7633638 0 0 0 -4.67968,-4.76172 c -20.10801,-0.35314 -40.21753,-0.70657 -60.32618,-1.05664 z"
       transform="translate(2.2450641,-15.319242)" /></g><g
     inkscape:label="Techo_2"
     inkscape:groupmode="layer"
     id="layer1"
     style="display:inline"
     transform="translate(-6.2196794,-229.2706)"><path
       style="display:inline;fill:#ffffff;fill-opacity:1;stroke:#000000;stroke-width:0.0905401;stroke-dasharray:none;stroke-opacity:0"
       d="m 26.824864,260.0159 21.279882,-0.002 2.983881,-30.64332 -13.808481,-0.0206 z"
       id="path36202-0-7-0"
       sodipodi:nodetypes="ccccc" /><path
       style="display:inline;fill:#571845;fill-opacity:1;stroke:#000000;stroke-width:0.0905401;stroke-dasharray:none;stroke-opacity:0"
       d="m 48.055815,260.00807 20.882432,-0.0118 -2.412104,-30.63666 h -15.4735 z"
       id="path36202"
       sodipodi:nodetypes="ccccc" /><path
       style="display:inline;fill:#fffff3;fill-opacity:1;stroke:#000000;stroke-width:0.0905401;stroke-dasharray:none;stroke-opacity:0"
       d="m 68.937649,259.99643 20.850995,-5.1e-4 -10.263026,-30.62758 -13.006181,-0.006 z"
       id="path36202-0-7-0-6"
       sodipodi:nodetypes="ccccc" /><path
       style="display:inline;fill:#571845;fill-opacity:1;stroke:#000000;stroke-width:0.0905401;stroke-dasharray:none;stroke-opacity:0"
       d="m 89.788238,259.99675 20.886882,0.003 -14.622346,-28.34881 c 0,0 -0.152945,-1.02801 -1.441291,-1.79937 -1.288359,-0.77136 -2.51326,-0.48357 -2.51326,-0.48357 H 79.502097 Z"
       id="path1173"
       sodipodi:nodetypes="ccczccc" /><path
       style="display:inline;fill:#571845;fill-opacity:1;stroke:#000000;stroke-width:0.0905401;stroke-dasharray:none;stroke-opacity:0"
       d="m 6.2929098,260.01975 20.8806032,-0.009 10.109997,-30.66386 H 23.78345 c 0,0 -1.008674,-0.13969 -1.796286,0.21979 -0.787619,0.35948 -1.1246,1.28362 -1.1246,1.28362 z"
       id="path1139"
       sodipodi:nodetypes="cccczcc" /></g><g
     inkscape:groupmode="layer"
     id="layer3"
     inkscape:label="Techo_1"
     style="display:inline"
     transform="translate(-6.2196794,-229.2706)"><path
       id="path9935-5"
       style="display:inline;fill:#4b1438;fill-opacity:1;stroke:#000000;stroke-width:0.113812;stroke-opacity:0"
       d="m 6.296393,259.92678 c 0.068113,4.44205 4.723227,8.01567 10.443475,8.01722 5.697892,-0.002 10.338355,-3.59541 10.436763,-8.01975 z"
       sodipodi:nodetypes="cccc" /><path
       id="path9935-5-6"
       style="display:inline;fill:#d4e2cd;fill-opacity:1;stroke:#000000;stroke-width:0.113812;stroke-opacity:0"
       d="m 27.175107,259.90824 c 0.06811,4.44204 4.723231,8.01566 10.443481,8.01721 5.697886,-0.002 10.338348,-3.59541 10.436758,-8.01975 z"
       sodipodi:nodetypes="cccc" /><path
       id="path9935-5-6-1"
       style="display:inline;fill:#4b1438;fill-opacity:1;stroke:#000000;stroke-width:0.113813;stroke-opacity:0"
       d="m 48.054785,259.90593 c 0.06811,4.44205 4.723229,8.01568 10.443476,8.01721 5.69789,-0.002 10.333889,-3.59505 10.432295,-8.0194 z"
       sodipodi:nodetypes="cccc" /><path
       id="path9935-5-6-1-2"
       style="display:inline;fill:#d5dfd4;fill-opacity:1;stroke:#000000;stroke-width:0.113924;stroke-opacity:0"
       d="m 68.905061,259.86305 c 0.06812,4.45064 4.720831,8.03397 10.441082,8.03553 5.697889,-0.002 10.338345,-3.60238 10.436762,-8.03528 z"
       sodipodi:nodetypes="cccc" /><path
       id="path9935-5-6-1-2-9"
       style="display:inline;fill:#4b1438;fill-opacity:1;stroke:#000000;stroke-width:0.113812;stroke-opacity:0"
       d="m 89.777176,259.87841 c 0.06815,4.44205 4.723223,8.01809 10.443484,8.01963 5.69788,-0.002 10.33835,-3.59539 10.43675,-8.01974 z"
       sodipodi:nodetypes="cccc" /></g><g
     inkscape:groupmode="layer"
     id="g9975"
     inkscape:label="Techo_1 copia"
     style="display:none"
     transform="translate(-6.2196794,-229.2706)"><ellipse
       style="fill:#fffff3;fill-opacity:1;stroke-width:0.34403"
       id="ellipse9971"
       cx="164.82845"
       cy="241.93672"
       rx="32.032631"
       ry="24.180531" /><path
       style="display:inline;fill:#333c83;fill-opacity:1;stroke-width:0.305771;stroke-dasharray:none"
       d="m 132.76581,242.22452 64.131,0.12946 0.3093,-25.5228 -64.25437,-0.3717 z"
       id="path9973"
       sodipodi:nodetypes="ccccc" /></g><metadata
     id="metadata9"><rdf:RDF><cc:Work
         rdf:about=""><dc:title>Logo - Bodega &quot;San José&quot;</dc:title><dc:date>07 / 07 / 2023</dc:date><dc:creator><cc:Agent><dc:title>Flores Angulo Danna</dc:title></cc:Agent></dc:creator><dc:language>Español</dc:language><dc:subject><rdf:Bag><rdf:li>bodega</rdf:li><rdf:li>logo</rdf:li><rdf:li>logo de bodega</rdf:li><rdf:li>&quot;San José&quot;</rdf:li><rdf:li>ventas</rdf:li></rdf:Bag></dc:subject></cc:Work></rdf:RDF></metadata></svg>
